<svg height="25" viewBox="0 0 34 25" width="34" xmlns="http://www.w3.org/2000/svg"><path d="m32.943 3.82h-9.1a1.082 1.082 0 0 1 -1-.68l-.951-2.47a1.071 1.071 0 0 0 -1-.67h-7.8a1.093 1.093 0 0 0 -1 .68l-.945 2.47a1.082 1.082 0 0 1 -1 .68h-9.085a1.032 1.032 0 0 0 -1.062.999v19.131a1.062 1.062 0 0 0 1.062 1.04h31.875a1.056 1.056 0 0 0 1.063-1.04v-19.13a1.024 1.024 0 0 0 -1.039-1.01zm-16.2 19.62a9.3 9.3 0 1 1 9.557-9.29 9.437 9.437 0 0 1 -9.562 9.29zm.457-16.52a7.233 7.233 0 1 1 -7.438 7.23 7.331 7.331 0 0 1 7.438-7.23z" fill="#fff"/></svg>