<svg xmlns="http://www.w3.org/2000/svg" xmlns:xlink="http://www.w3.org/1999/xlink" width="26" height="20" viewBox="0 0 26 20"><defs><style>.a{fill:url(#a);}.b{fill:#556db4;}.c{fill:url(#b);}</style><linearGradient id="a" x1="11.383" y1="12" x2="25.894" y2="12" gradientTransform="matrix(1, 0, 0, -1, 0, 22)" gradientUnits="userSpaceOnUse"><stop offset="0" stop-color="#6cc9c4"/><stop offset="1" stop-color="#8bcda6"/></linearGradient><linearGradient id="b" y1="12" x2="14.511" y2="12" gradientTransform="matrix(1, 0, 0, -1, 0, 22)" gradientUnits="userSpaceOnUse"><stop offset="0" stop-color="#4b69b2"/><stop offset="1" stop-color="#5e8dc9"/></linearGradient></defs><title>Artboard 1</title><path class="a" d="M11.383,12.422h6.406a4.317,4.317,0,0,0,0-8.633H15.748L11.383,0h6.406a8.106,8.106,0,0,1,3.053,15.615L25.893,20h-5.78Z"/><path class="b" d="M14.511,7.579H8.105a4.316,4.316,0,0,0,0,8.632h2.041L14.511,20H8.105A8.106,8.106,0,0,1,5.052,4.385L0,0H5.78Z"/><path class="c" d="M14.511,7.579H8.105a4.316,4.316,0,0,0,0,8.632h2.041L14.511,20H8.105A8.106,8.106,0,0,1,5.052,4.385L0,0H5.78Z"/></svg>