<svg xmlns="http://www.w3.org/2000/svg" width="20" height="20" viewBox="0 0 20 20"><defs><style>.a{isolation:isolate;}.b{fill:#427ca5;}.c{fill:#d37e41;}.d{fill:#e7b523;}.e{fill:#eff3ca;}</style></defs><title>Artboard 1</title><g class="a"><g class="a"><path class="b" d="M7.414.339a5.2,5.2,0,0,0-.636.212,3.259,3.259,0,0,0-.635.254,3.66,3.66,0,0,0-.509.212c-.3.169-.3.169-.466.254-.3.169-.3.169-.423.254a1.366,1.366,0,0,0-.424.3,2.376,2.376,0,0,0-.508.339,3.283,3.283,0,0,0-.509.423A10.091,10.091,0,0,1,6.27.763,4.174,4.174,0,0,1,7.414.339"/><path class="c" d="M1.779,4.321c-.084.085-.169.254-.254.339a2.449,2.449,0,0,1,.254-.339"/><path class="d" d="M7.922,17.5a3.719,3.719,0,0,0-.508.847,6.326,6.326,0,0,1,.508-.847"/><path class="b" d="M.424,12.455a1.171,1.171,0,0,0,.042.551,1.171,1.171,0,0,1-.042-.551"/><path class="b" d="M2.542,16.692a6.748,6.748,0,0,1-.509-.636h0c.17.212.424.508.594.72a.091.091,0,0,0-.085-.084"/><path class="d" d="M7.414,19.445a.7.7,0,0,1-.127-.593.732.732,0,0,0,.127.593"/><path class="d" d="M.085,8.812c0-.085.042-.17.042-.254L.254,7.8V7.88l-.085.339-.084.593h0"/><path class="c" d="M1.779,4.321a3.921,3.921,0,0,1,.382-.508h0l-.128.169a3.929,3.929,0,0,0-.466.678.944.944,0,0,1,.212-.339"/></g><g class="a"><g class="a"><path class="e" d="M13.9,5.846h-.128a.146.146,0,0,1,.043-.084h.042a.129.129,0,0,1,.043.084"/></g><path class="b" d="M2.754,3.177a3.581,3.581,0,0,1,.55-.593,6.17,6.17,0,0,1,.509-.423,1.619,1.619,0,0,1,.466-.339c.3-.212.3-.212.423-.3a4.887,4.887,0,0,0,.424-.254c.3-.17.3-.17.466-.254A1.778,1.778,0,0,1,6.1.805c.339-.127.382-.17.636-.254A5.1,5.1,0,0,0,7.371.339C8.642,0,9.447.169,9.278.89a1.5,1.5,0,0,1-.466.762,1.1,1.1,0,0,1-.763-.085A1.785,1.785,0,0,0,8.431.932C8.6.212,7.541.169,6.016.805a7.842,7.842,0,0,0-2.8,1.906,4.874,4.874,0,0,0-.466.466"/><path class="b" d="M2.754,3.177a.967.967,0,0,0-.3.466.967.967,0,0,1,.3-.466"/><path class="c" d="M9.278.042c.254,0,.593-.042.847-.042.89,0,1.313.339,1.144,1.017-.212.805-1.356,1.949-2.838,2.965-.3.127-.594-.254-.509-.423a.042.042,0,0,1,.043-.043,6.308,6.308,0,0,0,2.5-2.584c.169-.678-.381-.974-1.356-.89h.17"/><path class="c" d="M1.567,4.66A1.5,1.5,0,0,1,1.356,5a.929.929,0,0,1,.211-.339"/><path class="d" d="M14.362,1.017a1.018,1.018,0,0,1,.55,1.313C14.4,4.236,10.676,7.16,6.609,8.9a20.318,20.318,0,0,1-2.2.8c-.381.043-.424-.466-.254-.72.042-.084.084-.084.127-.127a16.789,16.789,0,0,0,2.033-.72c3.855-1.652,7.372-4.448,7.838-6.228A.964.964,0,0,0,13.514.635c.254.128.593.255.848.382"/><path class="d" d="M18.767,5.211l.128.212a1.045,1.045,0,0,1,.127.508v.042a1.631,1.631,0,0,1-.424-.762.9.9,0,0,0-.169-.593l.338.593"/><path class="b" d="M19.657,7.456a1.617,1.617,0,0,1-.042.763c-.509,1.864-3.686,4.617-7.541,6.609-.424.169-.678-.128-.593-.424a.431.431,0,0,1,.212-.254c3.9-2.034,7.159-4.83,7.668-6.736a1.6,1.6,0,0,0,0-.89,5.738,5.738,0,0,1,.3.932"/><path class="c" d="M19.954,9.235v.339a2.21,2.21,0,0,1-.043.509c-.3,1.144-1.694,2.626-3.6,4.067-.3.212-.466-.085-.423-.3a.78.78,0,0,1,.211-.339c1.992-1.482,3.432-3.008,3.729-4.194a1.626,1.626,0,0,0,.042-.635l.085.55"/><path class="b" d="M2.415,4.279A.564.564,0,0,1,2.372,3.9a.564.564,0,0,0,.043.381"/><path class="b" d="M6.778,3.008a.19.19,0,0,1,0,.254,7.133,7.133,0,0,1-1.4.678c-1.482.635-2.669.72-2.965.3.169-.211.381-.423.551-.635.254.339,1.186.254,2.372-.254a8.975,8.975,0,0,0,1.1-.551c.127-.042.3.17.339.212"/><path class="c" d="M1.356,5.889a.9.9,0,0,1-.127-.509.713.713,0,0,0,.127.509h0"/><path class="c" d="M4.787,5.465c0,.212-.042.508-1.864.763a1.838,1.838,0,0,1-1.567-.339h0a6.434,6.434,0,0,1,.423-.721c.339.424,1.4.424,2.839-.042.169-.042.169.339.169.339"/><path class="b" d="M.635,7.668a.8.8,0,0,1-.127-.636.8.8,0,0,0,.127.636"/><path class="b" d="M12.159.254a2.084,2.084,0,0,0,.381.085.872.872,0,0,1,.593,1.186c-.424,1.61-3.6,4.109-7.075,5.592C3.3,8.261,1.186,8.473.635,7.668L.89,6.905c.508.721,2.457.551,4.956-.508,3.178-1.4,6.1-3.686,6.482-5.126A.787.787,0,0,0,11.82.212c.084-.043.084-.043.339.042"/><path class="d" d="M.763,9.574c-.043.127-.085.3-.17.255a.967.967,0,0,1-.551-1.06.974.974,0,0,0,.17.721c.042-.255.085-.551.127-.8a.92.92,0,0,0,.381.3c.127.17.043.593.043.593"/><path class="c" d="M15.76,1.822l.423.3a1.21,1.21,0,0,1,.339,1.271c-.551,2.118-4.7,5.38-9.235,7.287C2.966,12.54-.169,12.455.042,10.633a1.264,1.264,0,0,0,.17.805,5.047,5.047,0,0,1-.043-.805C3.008,13.641,15.76,5.846,15.887,2.542a.945.945,0,0,0-.466-.932l.339.212"/><path class="b" d="M.466,13.006a1.171,1.171,0,0,1-.042-.551,1.171,1.171,0,0,0,.042.551"/><path class="b" d="M17.708,3.6a1.239,1.239,0,0,1,.17,1.186c-.593,2.245-4.957,5.677-9.786,7.711C3.516,14.489.169,14.4.424,12.455a1.114,1.114,0,0,0,.211.847,4.5,4.5,0,0,1-.211-.8c.762,1.059,3.643.8,7.329-.763,4.7-1.991,8.981-5.38,9.574-7.583a1.206,1.206,0,0,0-.254-1.229c.212.212.424.466.635.678"/><path class="d" d="M16.607,9.151a.577.577,0,0,1-.085.55,27.879,27.879,0,0,1-7.5,4.618c-4.279,1.779-7.5,1.907-7.795.381-.043-.127,0-.042.042-.084a.915.915,0,0,0,.169.508c-.042-.085-.084-.127-.127-.212-.042-.042-.042-.084-.084-.127-.085-.127-.128-.3-.212-.423.805,1.059,3.77.847,7.583-.8a29.011,29.011,0,0,0,7.5-4.618.327.327,0,0,1,.509.212"/><path class="b" d="M5.889,16.9c.042.085.084.255-.085.3-1.525.254-2.627.127-3.135-.424-.169-.212-.424-.508-.593-.72.466.593,1.61.763,3.262.508a.7.7,0,0,1,.551.339"/><path class="c" d="M10.549,17.073c.042.042.042.212-.212.339-2.923,1.144-5.211,1.4-6.143.762-.212-.169-.508-.381-.72-.55.89.762,3.3.508,6.439-.721a.529.529,0,0,1,.636.17"/><path class="b" d="M19.954,10.93a5.155,5.155,0,0,0-.085.763.157.157,0,0,1-.042.127c-.509,1.821-4.11,4.66-8.05,6.354-2.584,1.1-4.66,1.4-5.677,1.017-.254-.127-.593-.254-.8-.381C8.769,20.25,19.488,14.4,20,10.8l-.042.127"/><path class="d" d="M19.233,13.811c-1.482,3.05-8.345,6.439-11.057,6.016a6.211,6.211,0,0,1-.932-.212c.975.3,2.8-.043,5-.975,3.559-1.525,6.821-4.067,7.329-5.719a7.36,7.36,0,0,1-.339.89"/><path class="b" d="M17.031,16.861a.633.633,0,0,1-.255.3,14.814,14.814,0,0,1-3.516,2.075,8.989,8.989,0,0,1-2.8.763H9.4a9.341,9.341,0,0,0,3.559-.847,16.534,16.534,0,0,0,3.982-2.373c.042,0,.042-.042.085-.042a.041.041,0,0,0,.042.042.131.131,0,0,1-.042.085"/><path class="b" d="M2.415,4.279A.564.564,0,0,1,2.372,3.9a.156.156,0,0,1,.043-.128,3.289,3.289,0,0,1,.551-.508.318.318,0,0,0,.042.339c-.212.212-.381.424-.593.678"/><path class="c" d="M1.356,5.889a.9.9,0,0,1-.127-.509.322.322,0,0,1,.042-.169c.127-.212.3-.424.424-.636-.043.255-.043.424.084.551-.169.3-.3.508-.423.763"/><path class="b" d="M.635,7.668a.8.8,0,0,1-.127-.636.374.374,0,0,1,.043-.211,5.1,5.1,0,0,1,.3-.721.935.935,0,0,0,.085.763,3.837,3.837,0,0,0-.3.8"/><path class="d" d="M.254,9.532a1.02,1.02,0,0,1-.169-.72l.084-.551.085-.339a.84.84,0,0,0,.127.805,2.683,2.683,0,0,0-.127.8"/><path class="c" d="M.212,11.438a.675.675,0,0,1-.17-.508c0-.254-.042-.635-.042-.89a1.228,1.228,0,0,0,.169.593c0,.255.043.551.043.805"/><path class="b" d="M.635,13.3a.68.68,0,0,1-.169-.3c-.085-.254-.169-.636-.254-.89a1.536,1.536,0,0,0,.169.382c.085.3.17.55.254.8"/><path class="b" d="M2.372,3.813c0-.043.043-.127.043-.17a2.913,2.913,0,0,1,.3-.466c.17-.127.339-.3.509-.423a1.425,1.425,0,0,0-.254.508,3.7,3.7,0,0,0-.594.551"/><path class="c" d="M1.271,5.253A.593.593,0,0,1,1.356,5a1.5,1.5,0,0,1,.211-.339,3.929,3.929,0,0,1,.466-.678l.128-.169a2.5,2.5,0,0,0-.466.805c-.128.212-.3.423-.424.635"/><path class="b" d="M.508,6.863c0-.042.043-.127.043-.169.084-.255.254-.636.339-.89a1.007,1.007,0,0,1-.085.339,3.7,3.7,0,0,0-.3.72"/></g></g></svg>