<svg xmlns="http://www.w3.org/2000/svg" width="51" height="20" viewBox="0 0 51 20"><defs><style>.a{fill:#00a6c5;}</style></defs><title>logo</title><path class="a" d="M33.562,5l-.736.736a3.594,3.594,0,0,1,.368,3.177A3.632,3.632,0,0,1,28.562,11.1a3.4,3.4,0,0,1-.736-.368l-2.358,2.358L23.411,11.02a3.753,3.753,0,0,1-3.327.418,3.7,3.7,0,0,1-2.241-4.749,3.416,3.416,0,0,1,.418-.819l-.886-.887-.168.285A9.682,9.682,0,0,0,25.452,20h.016A9.677,9.677,0,0,0,33.746,5.3Z"/><path class="a" d="M19.348,6.957a2,2,0,0,0-.4,1.2,1.978,1.978,0,0,0,1.974,1.973,1.919,1.919,0,0,0,1.2-.418Z"/><path class="a" d="M29.03,9.548a1.911,1.911,0,0,0,1.1.335A1.976,1.976,0,0,0,32.107,7.91a1.954,1.954,0,0,0-.334-1.1Z"/><path class="a" d="M25.5,11.622,17.508,3.6l.318-.334A10.321,10.321,0,0,1,25.385,0H25.4a10.379,10.379,0,0,1,7.693,3.428l.3.335ZM18.813,3.6,25.5,10.3l6.605-6.572A9.49,9.49,0,0,0,25.418.936H25.4A9.366,9.366,0,0,0,18.813,3.6Z"/><path class="a" d="M16.689,16.789l-.936-.067c-3.98-.25-9.465-1.237-13.011-4.431A8.049,8.049,0,0,1,.117,8.4L0,7.826H14.482l-.084.535a10.867,10.867,0,0,0-.1,1.472A11.05,11.05,0,0,0,16.154,16Z"/><path class="a" d="M34.214,16.789,34.732,16a10.983,10.983,0,0,0,1.857-6.137,11.178,11.178,0,0,0-.1-1.5l-.067-.535H50.9l-.117.569a8.083,8.083,0,0,1-2.609,3.9c-3.545,3.194-9.047,4.181-13.026,4.431Z"/></svg>