<svg xmlns="http://www.w3.org/2000/svg" xmlns:xlink="http://www.w3.org/1999/xlink" width="28" height="20" viewBox="0 0 28 20"><defs><style>.a{fill:url(#a);}.b{fill:url(#b);}</style><linearGradient id="a" x1="52.212" y1="12.149" x2="-0.289" y2="12.325" gradientTransform="matrix(1, 0, 0, -1, 0.287, 22.279)" gradientUnits="userSpaceOnUse"><stop offset="0" stop-color="#04624a"/><stop offset="1" stop-color="#2f4347"/></linearGradient><linearGradient id="b" x1="52.478" y1="10.889" x2="-0.023" y2="11.064" gradientTransform="matrix(1, 0, 0, -1, -0.013, 22.579)" xlink:href="#a"/></defs><title>logo</title><polygon class="a" points="27.017 6.2 27.017 7.57 13.528 15.86 3.362 10.875 3.382 10.107 13.489 15.083 26.336 7.191 26.336 6.628 14.208 0.777 0.68 9.145 0.68 12.886 13.489 19.223 26.861 11.02 27.24 11.603 13.528 20 0 13.314 0 8.766 14.169 0 27.017 6.2"/><polygon class="b" points="26.842 12.517 27.036 11.293 25.85 11.088 25.928 10.612 27.59 10.894 27.318 12.595 26.842 12.517"/></svg>