<svg xmlns="http://www.w3.org/2000/svg" xmlns:xlink="http://www.w3.org/1999/xlink" width="20" height="20" viewBox="0 0 20 20"><defs><style>.a{fill:#fff;}.b{mask:url(#a);}.c{fill:#4871b7;}.d{fill:#425fac;}</style><mask id="a" x="-0.011" y="-0.011" width="20.271" height="20.271" maskUnits="userSpaceOnUse"><rect class="a" x="-0.011" y="-0.011" width="20.271" height="20.271"/></mask></defs><title>logo</title><g class="b"><path class="c" d="M16.939,2.927a9.875,9.875,0,0,0-14.035,0,10.066,10.066,0,0,0,0,14.146,9.875,9.875,0,0,0,14.035,0h0A10.067,10.067,0,0,0,16.939,2.927ZM15.39,10.22l-5.251,5.293a.313.313,0,0,1-.45,0h0L4.438,10.22a.318.318,0,0,1,0-.454h0L9.689,4.473a.313.313,0,0,1,.45,0h0L15.39,9.766a.318.318,0,0,1,0,.454Z"/><path class="d" d="M19.853,9.979a10.062,10.062,0,0,0-2.9-7.081,4,4,0,0,0-5.7-.014L9.7,4.431a.308.308,0,0,1,.211-.085.327.327,0,0,1,.225.1L16.925,11.3a4.082,4.082,0,0,1,0,5.747A10,10,0,0,0,19.853,9.979Z"/><path class="d" d="M2.889,17.031a4.035,4.035,0,0,0,5.716.014s.633-.667,1.534-1.575a.324.324,0,0,1-.45.014l-.014-.014L4.452,10.206a.313.313,0,0,1-.1-.241.326.326,0,0,1,.084-.228L2.918,11.27a4.113,4.113,0,0,0-.029,5.761Z"/></g></svg>