<svg xmlns="http://www.w3.org/2000/svg" width="20" height="20" viewBox="0 0 20 20"><defs><style>.a{fill:#273778;}</style></defs><title>logo</title><path class="a" d="M20,10A10,10,0,1,1,10.012,0,10,10,0,0,1,20,10Zm-2.656,0a7.344,7.344,0,1,0-7.421,7.343A7.361,7.361,0,0,0,17.344,10Z"/><path class="a" d="M15.847.825C16.955.813,18.062.813,19.17.813V4.148A11.39,11.39,0,0,0,15.847.825Z"/><path class="a" d="M19.17,15.847V19.2H15.847A11.36,11.36,0,0,0,19.17,15.847Z"/><path class="a" d="M4.154.828A11.268,11.268,0,0,0,.813,4.139V.834C.884.81,3.922.8,4.154.828Z"/><path class="a" d="M4.139,19.182H.834c-.024-.077-.03-3.2-.006-3.335A11.318,11.318,0,0,0,4.139,19.182Z"/></svg>