<svg xmlns="http://www.w3.org/2000/svg" xmlns:xlink="http://www.w3.org/1999/xlink" width="20" height="20" viewBox="0 0 20 20"><defs><style>.a{fill:url(#a);}</style><linearGradient id="a" x1="34.327" y1="-6.367" x2="48.189" y2="-20.229" gradientTransform="matrix(1, 0, 0, -1, -28.347, -3.298)" gradientUnits="userSpaceOnUse"><stop offset="0" stop-color="#11aae2"/><stop offset="1" stop-color="#016197"/></linearGradient></defs><title>Artboard 1</title><path class="a" d="M17.131,12.206a4.831,4.831,0,0,0-2.292-.555A1.624,1.624,0,0,1,13.19,10a1.674,1.674,0,0,1,1.649-1.651A4.83,4.83,0,0,0,17.131,7.8a4.177,4.177,0,1,0-6.266-3.617,4.792,4.792,0,0,0,.656,2.245,1.629,1.629,0,0,1-.6,2.271,1.677,1.677,0,0,1-2.263-.62A4.8,4.8,0,0,0,7.046,6.383a4.177,4.177,0,1,0,0,7.235,4.8,4.8,0,0,0,1.617-1.691,1.625,1.625,0,0,1,2.263-.62,1.68,1.68,0,0,1,.594,2.272,4.8,4.8,0,0,0-.655,2.244,4.178,4.178,0,1,0,6.266-3.617Z"/></svg>