<svg xmlns="http://www.w3.org/2000/svg" width="19" height="20" viewBox="0 0 19 20"><defs><style>.a{fill:#1b519a;}.b{fill:#5d9ed5;}</style></defs><title>Artboard 1</title><path class="a" d="M2.693,2.162C2.5,2.063,0,4.137,0,5.663,0,7.749,2.912,12.474,3.4,14.3c.422,1.567-.717,3.448-.4,3.534.286.184,3.006-2.584,3.112-3.765.136-1.879-3.176-7.36-3.44-8.775-.306-1.652.242-3.1.022-3.134Z"/><path class="b" d="M8.923,0c-.25-.125-3.435,2.517-3.435,4.465,0,2.66,3.714,8.686,4.34,11.014.538,2-.913,4.4-.516,4.506.366.234,3.833-3.293,3.969-4.8C13.456,12.792,9.231,5.8,8.894,4,8.5,1.9,9.2.051,8.923,0Z"/><path class="a" d="M15.353,2.162c-.2-.1-2.693,1.975-2.693,3.5,0,2.086,2.912,6.811,3.4,8.639.422,1.567-.716,3.448-.4,3.534.288.184,3.008-2.584,3.112-3.765.136-1.879-3.175-7.36-3.44-8.775-.3-1.652.243-3.1.022-3.134Z"/></svg>