<svg xmlns="http://www.w3.org/2000/svg" width="250" height="100" viewBox="0 0 250 100"><defs><style>.a{fill:#0973b9;}</style></defs><title>Artboard 1</title><path d="M.429,36.836a8.452,8.452,0,0,1,4.016-7.424q4.017-2.678,12.961-3.591a5,5,0,0,0-1.217-3.194,4.6,4.6,0,0,0-3.529-1.186,11.009,11.009,0,0,0-3.894.73,27.209,27.209,0,0,0-4.138,2.008l-3.165-5.9a31.674,31.674,0,0,1,6.116-2.86,20.781,20.781,0,0,1,6.785-1.1q5.841,0,8.914,3.316t3.073,10.314V45.233h-7.3l-.669-3.1H18.2A18.956,18.956,0,0,1,14.09,44.9a10.52,10.52,0,0,1-4.716,1.065,9.4,9.4,0,0,1-3.712-.7,8.063,8.063,0,0,1-2.8-1.947,9,9,0,0,1-1.795-2.89A9.82,9.82,0,0,1,.429,36.836Zm8.519-.67a2.511,2.511,0,0,0,.943,2.16,4.14,4.14,0,0,0,2.526.7,5.036,5.036,0,0,0,2.677-.669,12.786,12.786,0,0,0,2.312-1.887V31.176q-4.807.671-6.633,1.948A3.679,3.679,0,0,0,8.948,36.166Z"/><path d="M34.018,15.051h7.3l.609,5.294h.243a11.673,11.673,0,0,1,3.955-4.564,8.605,8.605,0,0,1,4.625-1.46,11.914,11.914,0,0,1,2.1.152,6.491,6.491,0,0,1,1.491.456l-1.46,7.728a15,15,0,0,0-1.583-.365,10.621,10.621,0,0,0-1.7-.121,6.52,6.52,0,0,0-3.56,1.217,8.8,8.8,0,0,0-3.073,4.32V45.233H34.018Z"/><path d="M58.236,15.051h7.3l.609,5.294h.243a11.673,11.673,0,0,1,3.955-4.564,8.608,8.608,0,0,1,4.625-1.46,11.914,11.914,0,0,1,2.1.152,6.491,6.491,0,0,1,1.491.456L77.1,22.657a15,15,0,0,0-1.583-.365,10.612,10.612,0,0,0-1.7-.121,6.52,6.52,0,0,0-3.56,1.217,8.8,8.8,0,0,0-3.073,4.32V45.233H58.236Z"/><path d="M82.454,15.051H91.4V45.233H82.454Z"/><path d="M99.248,15.051h7.3l.608,3.834h.244a24.326,24.326,0,0,1,4.259-3.2,10.429,10.429,0,0,1,5.416-1.369q4.929,0,7.15,3.225t2.221,8.945V45.233H117.5V27.647q0-3.285-.882-4.5a3.26,3.26,0,0,0-2.83-1.216,5.4,5.4,0,0,0-2.921.76,17.034,17.034,0,0,0-2.677,2.16V45.233H99.248Z"/><path d="M132.167,50.405q0-3.651,4.321-6.085v-.244a6.714,6.714,0,0,1-2.009-2.008,5.583,5.583,0,0,1-.791-3.1,5.642,5.642,0,0,1,.974-3.133,9.3,9.3,0,0,1,2.434-2.526v-.243a10.2,10.2,0,0,1-2.83-3.134,8.855,8.855,0,0,1-1.247-4.716,10.42,10.42,0,0,1,1.035-4.776,10.1,10.1,0,0,1,2.768-3.408,11.777,11.777,0,0,1,3.986-2.039,16.353,16.353,0,0,1,4.685-.669,13.693,13.693,0,0,1,4.686.73h11.013v6.511h-4.807a6.06,6.06,0,0,1,.7,1.7,8.807,8.807,0,0,1,.274,2.252,10.443,10.443,0,0,1-.913,4.533,8.624,8.624,0,0,1-2.525,3.164,10.933,10.933,0,0,1-3.773,1.856,17.1,17.1,0,0,1-4.655.608,11.852,11.852,0,0,1-3.651-.608,3.048,3.048,0,0,0-.852.974,2.874,2.874,0,0,0-.243,1.277,1.813,1.813,0,0,0,1,1.7,8.112,8.112,0,0,0,3.56.548h4.868q5.6,0,8.549,1.8t2.951,5.872a8.3,8.3,0,0,1-1.186,4.351A10.6,10.6,0,0,1,157.116,55a18.144,18.144,0,0,1-5.294,2.252,27.422,27.422,0,0,1-7,.821,25.335,25.335,0,0,1-4.96-.456,14.858,14.858,0,0,1-4.016-1.37,7.18,7.18,0,0,1-2.707-2.373A6.1,6.1,0,0,1,132.167,50.405Zm7.363-1.4a2.787,2.787,0,0,0,1.826,2.586,11.306,11.306,0,0,0,4.867.882,10.353,10.353,0,0,0,4.99-1.065,3.086,3.086,0,0,0,1.947-2.647,1.849,1.849,0,0,0-1.186-1.886,9.434,9.434,0,0,0-3.439-.487h-3.1q-1.582,0-2.555-.091a11.608,11.608,0,0,1-1.7-.274A4.089,4.089,0,0,0,139.53,49.006Zm5.963-18.742a3.907,3.907,0,0,0,2.952-1.248,5.339,5.339,0,0,0,1.186-3.8,5.056,5.056,0,0,0-1.186-3.62,3.911,3.911,0,0,0-2.952-1.248,3.955,3.955,0,0,0-2.951,1.217,5.04,5.04,0,0,0-1.186,3.651,5.339,5.339,0,0,0,1.186,3.8A3.9,3.9,0,0,0,145.493,30.264Z"/><path d="M167.764,22.049h-4.138V15.416l4.625-.365,1.034-8.032h7.424v8.032h7.241v7h-7.241V34.158a5.245,5.245,0,0,0,1.065,3.681,3.7,3.7,0,0,0,2.829,1.126,6.411,6.411,0,0,0,1.491-.182,9.9,9.9,0,0,0,1.369-.426l1.4,6.511q-1.217.364-2.86.73a17.839,17.839,0,0,1-3.833.365,12.044,12.044,0,0,1-4.777-.852,8.338,8.338,0,0,1-3.225-2.373,9.668,9.668,0,0,1-1.825-3.682,18.382,18.382,0,0,1-.578-4.776Z"/><path d="M187.479,30.142a17.48,17.48,0,0,1,1.218-6.724,14.74,14.74,0,0,1,3.255-4.959,14.047,14.047,0,0,1,4.716-3.073,14.845,14.845,0,0,1,5.537-1.065,14.62,14.62,0,0,1,5.507,1.065,14.118,14.118,0,0,1,4.685,3.073,14.757,14.757,0,0,1,3.256,4.959,17.518,17.518,0,0,1,1.217,6.724,17.51,17.51,0,0,1-1.217,6.724,14.757,14.757,0,0,1-3.256,4.959,14.1,14.1,0,0,1-4.685,3.073,14.62,14.62,0,0,1-5.507,1.065,14.845,14.845,0,0,1-5.537-1.065,14.032,14.032,0,0,1-4.716-3.073,14.74,14.74,0,0,1-3.255-4.959A17.473,17.473,0,0,1,187.479,30.142Zm9.189,0a12.277,12.277,0,0,0,1.369,6.268,4.886,4.886,0,0,0,8.306,0,12.072,12.072,0,0,0,1.4-6.268,12.072,12.072,0,0,0-1.4-6.268,4.886,4.886,0,0,0-8.306,0A12.277,12.277,0,0,0,196.668,30.142Z"/><path d="M223.016,15.051h7.3l.608,3.834h.243a24.363,24.363,0,0,1,4.259-3.2,10.434,10.434,0,0,1,5.416-1.369q4.929,0,7.15,3.225t2.221,8.945V45.233H241.27V27.647q0-3.285-.882-4.5a3.258,3.258,0,0,0-2.829-1.216,5.4,5.4,0,0,0-2.921.76,17.082,17.082,0,0,0-2.678,2.16V45.233h-8.944Z"/><path d="M8,78.272.7,65.356H4.453L8.12,72.2q.489.936.957,1.812t1.12,2.057h.163q.572-1.181.978-2.057t.9-1.812l3.545-6.847h3.585l-7.252,13.08,7.782,13.649H16.146l-3.952-7.211q-.531-.979-1.08-2.017T9.912,80.6H9.749q-.572,1.222-1.08,2.262T7.631,84.874L3.76,92.085H.215Z"/><path d="M38.6,92.085,32.158,80.8H27.35V92.085H23.928V65.356h8.393a16.993,16.993,0,0,1,3.748.388,8.032,8.032,0,0,1,2.954,1.283,6.1,6.1,0,0,1,1.935,2.324,7.966,7.966,0,0,1,.693,3.5,7.374,7.374,0,0,1-1.63,5.013,8.306,8.306,0,0,1-4.36,2.566l6.805,11.653ZM27.35,78.028h4.482a7.672,7.672,0,0,0,4.787-1.283,4.622,4.622,0,0,0,1.65-3.892,4.063,4.063,0,0,0-1.65-3.707,8.906,8.906,0,0,0-4.787-1.059H27.35Z"/><path d="M47.4,65.356h8.23a18.589,18.589,0,0,1,4.034.409,8.435,8.435,0,0,1,3.117,1.324,6.16,6.16,0,0,1,2,2.424,9.889,9.889,0,0,1,0,7.374,6.823,6.823,0,0,1-2.017,2.567,8.888,8.888,0,0,1-3.117,1.528,14.753,14.753,0,0,1-4.013.509H50.818V92.085H47.4Zm7.782,13.365A8.455,8.455,0,0,0,60.412,77.4,4.978,4.978,0,0,0,62.1,73.221q0-2.894-1.731-4.014a9.681,9.681,0,0,0-5.195-1.12H50.818V78.721Z"/><path d="M110.261,78.721a17.474,17.474,0,0,1,.9-5.786,12.678,12.678,0,0,1,2.506-4.359,10.957,10.957,0,0,1,3.789-2.75,11.674,11.674,0,0,1,4.746-.958,8.846,8.846,0,0,1,4.258,1,11.263,11.263,0,0,1,3.036,2.3l-1.915,2.16a8.6,8.6,0,0,0-2.364-1.813,6.4,6.4,0,0,0-2.974-.673,7.94,7.94,0,0,0-3.483.754,7.455,7.455,0,0,0-2.669,2.16,10.4,10.4,0,0,0-1.711,3.4,15.28,15.28,0,0,0-.611,4.483,16.149,16.149,0,0,0,.59,4.542,10.552,10.552,0,0,0,1.671,3.443,7.3,7.3,0,0,0,6.05,2.975,7.033,7.033,0,0,0,3.362-.774,10.475,10.475,0,0,0,2.75-2.2L130.1,88.7a11.437,11.437,0,0,1-3.545,2.852A9.914,9.914,0,0,1,122,92.574a11.506,11.506,0,0,1-4.665-.937,10.563,10.563,0,0,1-3.708-2.71,12.793,12.793,0,0,1-2.465-4.36A17.774,17.774,0,0,1,110.261,78.721Z"/><path d="M147.092,83.936h-9.737l-2.567,8.149h-3.464l9.045-26.729h3.83l9.045,26.729h-3.585Zm-.856-2.73-1.263-4.074q-.693-2.24-1.344-4.462t-1.3-4.542h-.164q-.653,2.322-1.3,4.542t-1.344,4.462l-1.3,4.074Z"/><path d="M156.789,65.356h8.23a18.573,18.573,0,0,1,4.033.409,8.435,8.435,0,0,1,3.117,1.324,6.154,6.154,0,0,1,2,2.424,9.889,9.889,0,0,1,0,7.374,6.815,6.815,0,0,1-2.018,2.567,8.891,8.891,0,0,1-3.116,1.528,14.758,14.758,0,0,1-4.013.509h-4.808V92.085h-3.422Zm7.782,13.365a8.457,8.457,0,0,0,5.235-1.324,4.978,4.978,0,0,0,1.691-4.176q0-2.894-1.732-4.014a9.677,9.677,0,0,0-5.194-1.12h-4.36V78.721Z"/><path d="M180.053,65.356h3.423V92.085h-3.423Z"/><path d="M196.146,68.209h-8.108V65.356h19.6v2.853h-8.107V92.085h-3.382Z"/><path d="M222.792,83.936h-9.738l-2.566,8.149h-3.464l9.046-26.729H219.9l9.045,26.729h-3.585Zm-.856-2.73-1.263-4.074q-.693-2.24-1.344-4.462t-1.3-4.542h-.163q-.651,2.322-1.3,4.542t-1.344,4.462l-1.3,4.074Z"/><path d="M232.489,65.356h3.422V89.192h11.653v2.893H232.489Z"/><path class="a" d="M98.608,96.638c-.333,0-.666.017-1,.041.332-.024.665-.039,1-.041m.15,0c-.05,0-.1,0-.15,0,.05,0,.1,0,.151,0Zm-21.62.323q-.383-.055-.765-.092.382.036.765.092M68.749,96.7a1.959,1.959,0,0,0-.217,2.006h0c.016-.017.034-.031.051-.048h0l0,0c.042-.042.085-.084.131-.124h0c.027-.025.056-.048.084-.071h0c.038-.033.076-.065.117-.1h0c.031-.024.065-.048.1-.071h0c.04-.03.079-.059.121-.088h0c.035-.024.072-.046.107-.069h0c.042-.028.083-.056.126-.082h0l.116-.068h0l.133-.076h0c.049-.027.1-.053.149-.078h0l.115-.059h0l.128-.06h0l.148-.067h0c.045-.02.09-.038.136-.057h0c.052-.021.1-.042.156-.062h0l.141-.053h0c.054-.021.108-.038.162-.058h0l.147-.049h0c.056-.019.113-.036.17-.053h0l.149-.044h0c.053-.016.108-.029.162-.045h0l.168-.044h0l.081-.019h0c.109-.026.219-.051.331-.075h0l.129-.026h0c.049-.01.1-.02.147-.028h0l.23-.041H72.5l.121-.02h0l.118-.017h0l.3-.041h.005c.081-.011.164-.019.247-.029h0l.29-.026h0l.159-.014h0l.155-.01h0l.182-.01h0l.213-.009h0l.224-.007h0l.175,0h.223l.179,0h0q.111,0,.222.006h0c.061,0,.121,0,.182.006h0l.223.01h0l.181.011h0l.224.017h0c.061,0,.122.009.182.015h0c.075.006.151.014.225.022h0l.183.02h0l.227.029h0c.06.007.12.016.18.025.078.01.155.022.232.034h0l.176.029h0l.206.036h0l.2.038h0l.247.051h0l.155.033h0c.092.021.183.043.275.067h0c.093.022.188.046.282.071s.168.045.251.068l.206.064,0-.013c.071.025.142.049.217.07.11.031.221.059.332.084.037.008.074.014.111.021.075.015.151.03.228.042.044.007.088.012.132.018.07.01.14.018.21.026h.016l.124.01c.068.006.137.01.2.013l.141.005h.2c.046,0,.093,0,.138,0,.069,0,.138-.007.206-.011.038,0,.076,0,.114-.009h.015c.074-.007.146-.016.219-.025.026,0,.052-.007.077-.011l.03,0c.106-.017.212-.036.315-.057s.191-.043.284-.07a3.457,3.457,0,0,0,.975-.422,2.173,2.173,0,0,0,.362-.293c.034-.037.066-.073.1-.109l.023-.03c.024-.031.048-.063.069-.095l.011-.017q.034-.056.063-.111l.013-.029a.951.951,0,0,0,.039-.095l0-.008.006-.016a1.172,1.172,0,0,0,.032-.116l0-.022c.006-.033.011-.067.014-.1l0-.026a.93.93,0,0,0,0-.118V95.92a.8.8,0,0,0-.013-.108v-.006l0-.02a1.167,1.167,0,0,0-.071-.237l-.006-.014,0-.009a1,1,0,0,0-.054-.109l0-.008c-.022-.039-.046-.078-.073-.117l-.007-.009,0,0,0,0q-.037-.051-.078-.1l-.008-.008,0-.007c-.032-.037-.066-.075-.1-.111h0l-.01-.01h0c-.033-.034-.068-.066-.105-.1l-.019-.016c-.038-.033-.078-.065-.119-.1h0l-.012-.009a5.264,5.264,0,0,1-3.9.348c-.073-.022-.14-.033-.209-.056l0,.005c-.066-.021-.136-.048-.2-.067-4.276-1.223-9.178-.435-10.642,1.651m1-4.893a1.874,1.874,0,0,0-.112,2.087c1.652-1.593,5.6-2.195,9.257-1.351l.039.027c-.085-.062-.168-.124-.249-.188h0c-.091-.071-.178-.143-.263-.218l0,0c-.085-.073-.167-.147-.247-.223h0l-.005-.005h0c-.08-.075-.157-.153-.231-.231h0c-.1-.106-.194-.213-.284-.321h0c-.082-.1-.161-.2-.235-.3h0a4.847,4.847,0,0,1-.7-1.352c-3.07-.185-5.932.6-6.968,2.081M88.864,55.368a2.258,2.258,0,0,1,.362.294,2.121,2.121,0,0,0-1.089-.833c-1.4-.55-3.188-.194-3.835.728l-.019.032.008-.008c.049-.045.1-.089.154-.131l.018-.013c.056-.042.114-.083.175-.121l.013-.008a3.608,3.608,0,0,1,1.368-.481c.022,0,.045-.006.068-.01.06-.008.122-.013.183-.02.035,0,.072,0,.107-.009.056,0,.112-.006.168-.007s.085,0,.128,0,.105,0,.158,0,.094,0,.141.006.1.006.15.011.1.011.15.018.095.011.143.019.1.019.157.029.09.017.135.028.111.027.166.043l.123.033c.068.021.135.045.2.07l.075.027.019.008c.07.029.136.057.2.088l.062.029c.056.029.111.058.163.089.032.018.063.037.093.056s.034.022.052.034m.975,1.264A2.3,2.3,0,0,0,88.4,55.35c-1.686-.659-3.829-.233-4.606.876a1.484,1.484,0,0,0-.18.336l0,0a2.427,2.427,0,0,1,.173-.2l.008-.008a2.465,2.465,0,0,1,.2-.179l.011-.009c.072-.056.147-.11.226-.161L84.246,56c.078-.05.161-.1.246-.142l.017-.009c.085-.043.173-.085.264-.124l.02-.007c.091-.038.184-.073.28-.1L85.1,55.6c.1-.031.194-.059.293-.084l.026-.006c.1-.025.2-.048.3-.066l.029-.005c.1-.018.207-.033.312-.045l.029,0c.106-.012.212-.021.319-.026h.03c.108,0,.216-.006.325,0h.028c.109,0,.219.008.329.018h.024c.111.011.223.024.334.04l.018,0c.113.018.225.039.337.064l.01,0c.114.027.228.056.34.091h0c.115.034.228.073.339.116.07.029.137.057.2.087l.038.017c.061.029.12.058.177.088l.01.005c.063.034.123.069.182.1l.013.008c.055.035.11.071.161.107l.006.005a2.318,2.318,0,0,1,.529.514m.479.912a2.624,2.624,0,0,0-1.679-1.521c-1.95-.762-4.425-.27-5.323,1.012a1.762,1.762,0,0,0-.227.435l.011-.015c.026-.034.053-.068.082-.1l.015-.018c.03-.035.06-.069.091-.1l.016-.016c.032-.034.065-.065.1-.1l.015-.013c.035-.033.072-.065.109-.1L83.543,57l.116-.092.016-.01c.041-.03.081-.059.124-.087l.016-.011c.042-.027.086-.056.13-.082l.016-.009q.068-.041.138-.078l.016-.01c.047-.024.095-.049.143-.072l.018-.008c.048-.023.1-.046.147-.067l.02-.01.151-.06.023-.009c.051-.018.1-.038.152-.055l.028-.009.153-.049.031-.009c.051-.015.1-.03.154-.043l.035-.009c.051-.012.1-.025.154-.036l.04-.009.153-.032.044-.008.152-.025.048-.007.151-.02.054-.005c.049-.006.1-.011.147-.015l.058,0,.145-.01.061,0,.144-.005h.063c.048,0,.1,0,.144,0h.064l.144.005.063,0,.144.01.064.006.144.014.061.009.147.019.051.008.156.026c.012,0,.025.005.036.009.057.01.113.022.169.034l.02.005a5.424,5.424,0,0,1,.779.237c.083.033.163.067.241.1l.044.02a4.156,4.156,0,0,1,.431.233l.026.015a3.409,3.409,0,0,1,.37.273l.008.007a2.471,2.471,0,0,1,.428.467m1.248,1.632a2.086,2.086,0,0,1,.379.162c0-.311-.277-.606-.829-.788a2.85,2.85,0,0,0-.372-.094,3.2,3.2,0,0,0-1.839-1.514c-2.238-.875-5.079-.31-6.111,1.16a2.025,2.025,0,0,0-.258.5,1.345,1.345,0,0,0-.682.448.551.551,0,0,0-.108.33l.013-.007a2.427,2.427,0,0,1,.542-.206l.037-.009.028-.007c.025-.053.052-.105.083-.159a2.1,2.1,0,0,1,.117-.185c.041-.06.087-.117.134-.175.014-.017.028-.032.043-.048A5.27,5.27,0,0,1,86.7,57.14a6.676,6.676,0,0,1,2.326.437h0c.105.042.2.086.3.132l.051.023c.094.044.183.091.27.14l.044.024a4.044,4.044,0,0,1,.494.331l.017.015c.071.057.139.117.2.177.022.021.042.043.062.063s.062.062.091.094l.049.057c.028.032.055.064.081.1l.043.059c.023.033.048.065.07.1l.037.061c.023.037.046.074.066.111h0l0-.028a3.461,3.461,0,0,1,.666.144m1.386,1.607.018.01c.014-.382-.314-.748-.994-.973a3.854,3.854,0,0,0-.842-.166,3.727,3.727,0,0,0-1.983-1.549c-2.5-.98-5.686-.347-6.841,1.3a2.3,2.3,0,0,0-.207.359,1.99,1.99,0,0,0-1.253.654.668.668,0,0,0-.129.424l0,0c.044-.03.091-.058.141-.086l0,0a3.067,3.067,0,0,1,.9-.3l.051-.01.1-.016c0,.035-.006.071-.007.106.019-.034.039-.067.06-.1.011-.018.024-.036.036-.054s.023-.037.036-.056c.047-.067.1-.131.151-.194.019-.023.038-.045.058-.067.035-.04.072-.079.109-.118l.076-.076c.038-.036.077-.072.117-.107.023-.021.045-.041.07-.061h0a6.335,6.335,0,0,1,4.05-1.243,7.46,7.46,0,0,1,2.608.491c.074.029.145.059.215.09l.053.023.15.07.067.033c.043.02.085.043.127.064l.068.038c.041.022.079.044.118.067.021.013.044.025.065.039.04.024.079.048.117.074l.054.034c.052.035.1.07.15.106.025.017.047.035.07.053.069.053.135.107.2.162h0c.06.053.117.107.171.161l.014.013c.033.034.063.069.094.1s.077.089.113.134l.057.073c.048.064.094.128.135.194l.008.013c.022.036.043.073.063.11l0,.008a1.694,1.694,0,0,0-.025-.275,4.119,4.119,0,0,1,1.01.188l.014,0c.064.022.125.045.184.068l.066.029c.041.018.08.037.117.055l.064.034c.045.024.087.049.127.075m.851,1.453c.041.025.083.05.121.077.015-.443-.365-.865-1.149-1.125a4.789,4.789,0,0,0-1.486-.219,4.686,4.686,0,0,0-1.87-1.238c-2.729-1.067-6.174-.42-7.538,1.318a2.73,2.73,0,0,0-1.965.83.767.767,0,0,0-.148.485l0,0c.049-.034.1-.067.155-.1l.018-.01c.055-.031.113-.062.174-.09l0,0c.063-.029.129-.057.2-.084h0c.066-.025.135-.048.2-.069L80.549,62c.07-.022.141-.042.214-.059l.018,0a4.429,4.429,0,0,1,.469-.089l.027,0,.173-.019a2.1,2.1,0,0,0-.111.657l0-.006c.016-.032.034-.063.053-.095s.027-.05.042-.074l.019-.029c.028-.045.056-.091.088-.136a3.409,3.409,0,0,1,.336-.4c.037-.038.074-.075.113-.113l.1-.1c.043-.038.085-.076.13-.112s.068-.053.1-.079c.05-.039.1-.078.154-.115l.092-.062c.059-.039.118-.079.179-.117a7.5,7.5,0,0,1,3.905-.966,8.228,8.228,0,0,1,2.881.542l.061.025.173.072.1.046c.042.019.083.037.124.058l.105.052c.038.019.074.037.109.056l.105.057.076.044c.091.052.178.106.262.162l.008,0a4.768,4.768,0,0,1,.4.3c.045.037.088.075.129.113s.093.083.136.126h0l.091.1.039.042c.028.033.056.064.083.1l.035.043c.027.033.052.066.076.1.011.014.02.027.03.041.025.036.049.07.071.105l.022.035c.024.038.048.076.069.114l.008.016c.024.042.047.085.069.128a2.2,2.2,0,0,0-.161-.825,5.106,5.106,0,0,1,1.444.235l.024.009c.071.024.14.049.2.075l.1.046c.033.015.066.03.1.046s.079.041.116.062l.051.03m1.151,2.075c.119-.561-.312-1.115-1.3-1.441a5.746,5.746,0,0,0-2.042-.243,5.309,5.309,0,0,0-1.938-1.235c-2.915-1.139-6.573-.5-8.149,1.3a3.426,3.426,0,0,0-2.63.975.859.859,0,0,0-.153.706,2.154,2.154,0,0,1,.181-.13h0a3.342,3.342,0,0,1,.935-.4l.012,0c.087-.024.177-.045.27-.064l.01,0a5.6,5.6,0,0,1,.588-.092h.006q.093-.009.189-.015a2.284,2.284,0,0,0-.13.671,3.025,3.025,0,0,1,.218-.357,3.824,3.824,0,0,1,.3-.37c.064-.068.128-.136.2-.2.018-.018.038-.036.056-.052.07-.064.141-.126.216-.188l.063-.049c.077-.059.154-.118.235-.174l.068-.045c.082-.054.167-.107.254-.159a8.267,8.267,0,0,1,4.23-1.028,9.029,9.029,0,0,1,3.166.6q.136.054.267.111c.016.007.032.014.049.023.069.029.136.06.2.092l.069.035c.058.029.114.057.17.087l.073.04.058.032a5.6,5.6,0,0,1,.618.406l.008.006c.087.067.17.134.248.2l.021.018q.12.106.228.219l.012.012c.036.038.07.074.1.112l.045.052c.03.036.06.072.088.108l.043.054c.027.039.054.075.079.112.013.017.025.035.037.053.027.041.052.081.076.122l.027.044c.03.053.06.106.086.161l0,.007,0,.008a2.427,2.427,0,0,0-.182-.853,5.892,5.892,0,0,1,1.8.268h0c.093.031.18.063.263.1l.015.006c.083.035.159.07.232.108l.013.006c.073.038.142.078.206.119l0,0a2.026,2.026,0,0,1,.182.131h0m.941,2.147c.212-.662-.261-1.331-1.429-1.717a6.3,6.3,0,0,0-2.03-.283,2.5,2.5,0,0,1,.249,1.145,4.872,4.872,0,0,0-2.742-2.231c-3.366-1.315-7.64-.466-9.192,1.747a3.266,3.266,0,0,0-.237.394,2.434,2.434,0,0,1,.192-.969,3.693,3.693,0,0,0-2.763,1.086.961.961,0,0,0-.144.893c.063-.048.131-.094.2-.138l.009-.006c.068-.041.141-.081.216-.12l.024-.013c.076-.036.154-.072.235-.1l.023-.01a4.669,4.669,0,0,1,.543-.179l.02,0c.092-.024.188-.046.285-.066l.039-.008q.144-.029.294-.051l.036-.005c.207-.03.422-.051.642-.063l.037,0h0a2.51,2.51,0,0,0-.187.976h0c.035-.069.073-.138.114-.209l.006-.009q.063-.105.135-.21l0,0a6.236,6.236,0,0,1,3.762-2.224c.017,0,.035-.008.052-.012.168-.038.337-.071.509-.1.082-.013.165-.027.248-.038.11-.016.221-.029.333-.041.276-.031.554-.05.836-.057l.061,0a9.951,9.951,0,0,1,3.8.649l.006,0c.1.038.189.077.281.117.033.013.064.029.095.043.06.027.12.054.178.082l.109.054c.051.025.1.05.15.078l.113.06.132.077c.038.022.075.044.113.068s.079.049.117.074l.112.073c.035.024.069.049.1.074l.112.079.084.067c.04.031.079.06.116.092l.036.031a4.64,4.64,0,0,1,.427.41.319.319,0,0,0,.031.033c.037.042.073.086.108.129l.034.041c.034.043.066.086.1.129l.029.042c.032.044.062.088.092.133l.022.037c.029.047.057.095.084.143l.013.025c.028.051.055.1.08.155a2.61,2.61,0,0,0-.244-1.154l.032,0a6.682,6.682,0,0,1,2.164.3h.007c.091.031.177.062.26.1l.038.016c.08.032.156.068.228.1l.039.019c.072.037.139.074.2.114l.027.017c.066.041.127.083.184.126l0,0m2.069,5.083c.19-.782-.4-1.558-1.776-2.013a7.84,7.84,0,0,0-2.7-.34,2.846,2.846,0,0,0-.235-1.134l.1,0a7.406,7.406,0,0,1,2.391.331,3.5,3.5,0,0,1,1.209.643c.209-.728-.324-1.458-1.607-1.882a7.085,7.085,0,0,0-2.394-.311,2.735,2.735,0,0,1,.268,1.161,5.217,5.217,0,0,0-3.013-2.5c-3.661-1.431-8.31-.507-10,1.9a3.4,3.4,0,0,0-.291.5,2.66,2.66,0,0,1,.209-.973A4.237,4.237,0,0,0,76.9,68.133a1.073,1.073,0,0,0-.17.962c.034-.03.07-.059.107-.088l.034-.026c.028-.021.056-.042.086-.062l.054-.035.075-.049.062-.035c.025-.015.05-.03.076-.044l.066-.035.079-.04c.024-.01.047-.022.071-.033l.082-.037.074-.031c.029-.013.058-.024.088-.035l.076-.028c.03-.012.062-.023.093-.034s.051-.018.076-.025l.1-.033c.024-.007.048-.016.073-.022.043-.013.087-.024.131-.036l.072-.019c.053-.013.107-.027.162-.039l.077-.015.115-.024.087-.015.11-.019c.03-.006.061-.01.092-.014l.111-.016.093-.012.112-.012.1-.01.115-.01.1-.007.118-.007.095,0h.027a2.735,2.735,0,0,0-.172,1.132c-1.668.032-3.137.518-3.715,1.341a1.183,1.183,0,0,0-.2,1,2.2,2.2,0,0,1,.2-.16l.044-.033.087-.057.054-.034.088-.053.062-.034c.03-.017.06-.033.091-.048s.045-.024.068-.035l.094-.045.073-.032c.032-.015.064-.029.1-.042l.076-.031.1-.038c.027-.011.054-.019.081-.029l.105-.036.082-.025.11-.034.071-.02c.074-.02.149-.04.226-.058l.1-.023.108-.022c.035-.007.069-.015.1-.021l.108-.02.109-.019c.036,0,.072-.01.108-.017l.114-.016.109-.013.119-.014.108-.01c.041,0,.082-.008.123-.01l.108-.009.13-.007.1,0c.048,0,.095,0,.143,0l.095,0h.022a2.966,2.966,0,0,1,.318-1.175,3.819,3.819,0,0,1,.278-.469c1.208-1.721,3.871-2.713,6.655-2.683a10.712,10.712,0,0,1,3.747.707c.108.042.213.086.316.131l.072.032c.076.035.152.069.225.106.033.014.065.032.1.047.062.032.125.063.185.1l.106.057.161.092.107.065c.049.03.1.061.144.092l.108.07L92,67.82c.036.026.072.052.107.079s.074.056.11.085.074.058.109.087.057.049.085.074a5,5,0,0,1,.428.418l.028.03c.04.046.079.093.117.14l.036.044c.037.047.071.093.1.14l.034.047c.033.047.064.1.095.144l.028.044c.027.043.052.087.077.131l.017.031.014.027c.028.052.055.105.079.156l0,.008h0a3.044,3.044,0,0,1,.274.972c.086,0,.172-.009.259-.01a8.1,8.1,0,0,1,2.627.363c.124.042.241.086.353.131l.046.019.1.047.08.035.076.039c.033.017.066.032.1.049l.055.031c.035.02.071.039.106.061.013.008.026.017.041.025.036.022.073.046.107.07l.032.022c.036.024.071.05.1.076l.027.021c.033.027.066.053.1.08l0,0m1.046,3.032c.267-.883-.371-1.77-1.927-2.284a8.651,8.651,0,0,0-3.092-.367c-.179-1.4-1.361-2.756-3.511-3.6-3.951-1.544-8.967-.547-10.787,2.05a3.24,3.24,0,0,0-.614,1.636c-1.88.012-3.547.548-4.195,1.471a1.292,1.292,0,0,0-.2,1.178h0c.025-.023.052-.045.079-.067l.054-.044c.026-.021.054-.041.081-.061l.062-.046.087-.056.068-.045.09-.053c.024-.014.049-.029.073-.041s.063-.034.095-.051l.078-.04.1-.047c.027-.014.055-.025.083-.037l.1-.046.087-.034.109-.042c.029-.011.059-.021.09-.031s.074-.027.112-.039.062-.02.092-.028c.075-.025.152-.047.23-.068l.1-.026.116-.028.109-.026.117-.025.114-.023.119-.022.118-.02.121-.019.122-.017.122-.016.126-.013.122-.013.132-.011c.04,0,.08-.007.12-.009s.093-.005.139-.007l.118-.007.151,0,.109,0c.061,0,.122,0,.184,0a3.159,3.159,0,0,1,.323-1.093c.008-.017.018-.035.027-.053.058-.113.122-.224.194-.336h0c.028-.045.055-.089.086-.133,1.237-1.762,3.9-2.813,6.736-2.875a11.555,11.555,0,0,1,4.427.754l.121.051c.071.028.143.057.212.087l.158.072c.055.026.11.05.163.076s.108.055.162.082.1.048.143.073l.161.089.125.071c.055.032.108.065.16.1.037.022.074.046.11.069.054.035.107.071.158.106l.094.067c.054.038.106.077.158.115l.076.06c.053.042.106.085.157.128l.058.05c.054.048.107.095.159.143l.035.034c.056.054.112.109.165.164v0a4.473,4.473,0,0,1,.463.571c.024.033.046.068.068.1s.027.042.04.062c.033.055.064.108.094.162l.034.065c.018.035.036.069.052.1s.026.056.039.084a3.259,3.259,0,0,1,.26.862,9.111,9.111,0,0,1,3.308.38c.079.026.155.053.229.08.016.006.03.013.046.018.058.023.115.045.171.07l.04.017.164.073.028.016c.056.027.111.053.163.082l.016.009c.056.031.111.062.163.094l.006,0c.054.035.107.068.158.1h0a3.061,3.061,0,0,1,.285.222m.995,3.3c.454-1.022-.215-2.083-2.022-2.68a9.537,9.537,0,0,0-3.489-.392c-.226-1.472-1.491-2.888-3.752-3.772-4.234-1.655-9.609-.585-11.561,2.2a3.515,3.515,0,0,0-.65,1.663c-2.1-.012-3.977.576-4.7,1.6a1.416,1.416,0,0,0-.141,1.475,3,3,0,0,1,.281-.219l.006,0c.039-.028.081-.055.123-.082.014-.009.028-.019.043-.027.038-.024.079-.047.12-.071l.057-.032c.039-.022.08-.043.121-.063.022-.011.044-.024.066-.034l.124-.059.072-.032c.042-.019.085-.037.129-.055l.076-.03c.043-.017.088-.035.133-.051l.078-.028c.047-.016.093-.032.142-.047.024-.009.049-.016.074-.024l.152-.046.041-.012c.125-.035.254-.068.385-.1l.033-.008.151-.031c.033-.007.065-.015.1-.021s.1-.018.143-.025l.114-.02.139-.022.124-.016c.046-.007.092-.012.138-.018s.086-.011.13-.015l.138-.014.136-.011.136-.01.144-.008.132-.007c.052,0,.1,0,.157,0s.082,0,.123,0h.283a3.525,3.525,0,0,1,.612-1.825c.021-.032.041-.065.063-.1l.014-.02c1.386-1.977,4.445-3.117,7.643-3.08.114,0,.228,0,.342.009l.095,0a12.176,12.176,0,0,1,3.867.8c.125.049.247.1.365.152.034.014.065.029.1.045.084.037.168.075.249.114.042.02.082.042.123.062.069.035.138.07.205.106.044.023.087.048.131.072l.179.1.133.082c.054.033.107.068.159.1s.089.058.132.087l.143.1.129.1q.064.048.126.1c.043.034.085.068.126.1s.076.064.112.1.083.074.122.11l.1.094.119.119.081.088c.04.044.079.086.116.13l.063.077c.04.047.08.1.117.145l.035.05c.037.048.069.1.1.147s.048.071.071.107.043.068.063.1.042.073.063.109l.056.106c.018.034.035.07.052.1s.037.076.053.114a3.44,3.44,0,0,1,.287,1.1c.317-.02.634-.028.95-.022a9.277,9.277,0,0,1,2.7.43c.139.045.268.094.394.145l.08.032c.036.015.07.032.106.048s.076.032.113.05l.074.037c.044.022.088.043.13.066l.053.03c.047.026.093.051.137.077l.038.025c.048.029.094.058.138.088l.028.02c.045.032.091.064.133.1l.023.018c.042.033.084.066.123.1l0,0m1.079,3.72c.41-1.074-.327-2.173-2.222-2.8a10.32,10.32,0,0,0-3.842-.419C94.853,76.744,93.5,75.16,91,74.183c-4.513-1.763-10.242-.625-12.322,2.341a3.693,3.693,0,0,0-.707,1.94c-2.3-.033-4.376.605-5.164,1.728a1.519,1.519,0,0,0-.19,1.5l.014-.014c.04-.039.082-.078.126-.116l0,0a4.262,4.262,0,0,1,1.085-.655h0c.063-.028.129-.055.2-.081l.03-.012.188-.069.046-.016c.061-.021.123-.041.185-.06l.058-.018c.061-.02.123-.037.185-.054l.068-.017.185-.049.074-.018.187-.041.078-.016c.063-.013.127-.026.191-.037L75.6,80.4l.2-.032.078-.011.2-.028.067-.008c.251-.03.509-.05.771-.064h.026l.188-.006.118,0h.439a3.6,3.6,0,0,1,.351-1.323l.008-.019a4.547,4.547,0,0,1,.24-.433h0c.041-.066.084-.13.13-.2,2.147-3.062,8.061-4.238,12.718-2.416a7.01,7.01,0,0,1,3.64,2.793l0,.008c.042.073.081.144.118.217l.024.05c.028.057.055.117.08.176a3.69,3.69,0,0,1,.282,1.049c.22-.016.441-.025.661-.029a10.289,10.289,0,0,1,3.338.462c.1.032.19.066.282.1l.056.022c.069.028.138.055.2.083l.074.034c.059.026.115.051.17.078l.077.038c.052.027.1.053.152.08l.072.04c.049.029.1.056.142.086.021.012.042.026.063.04.047.03.093.061.137.094.017.01.034.023.051.035.049.037.1.074.143.113l.025.021c.055.046.108.093.157.14m1.033,3.612c.407-1.139-.386-2.3-2.394-2.961a11.054,11.054,0,0,0-4.165-.444c-.188-1.731-1.634-3.408-4.285-4.443-4.811-1.882-10.918-.667-13.136,2.5a3.964,3.964,0,0,0-.754,2.042c-2.487-.044-4.732.64-5.582,1.852a1.621,1.621,0,0,0-.22,1.566,3.289,3.289,0,0,1,.245-.22l.049-.04c.035-.028.072-.055.108-.083l.065-.046c.037-.026.074-.05.113-.076l.07-.046.121-.072.073-.042c.043-.024.086-.049.13-.071l.068-.035c.172-.086.354-.167.546-.241a.121.121,0,0,1,.03-.011q.084-.033.171-.063l.071-.026.169-.054c.026-.009.053-.016.079-.024.058-.018.117-.036.176-.052l.077-.021.186-.049q.032-.006.063-.015c.314-.074.644-.135.984-.183l.029,0c.079-.01.158-.021.237-.03l.054,0,.237-.024.052,0c.082-.007.165-.013.247-.018l.033,0c.357-.022.723-.028,1.094-.018a3.924,3.924,0,0,1,.289-.936h0a4.656,4.656,0,0,1,.441-.772c2.28-3.252,8.563-4.5,13.512-2.566a7.8,7.8,0,0,1,3.648,2.629c.021.03.042.059.063.09.04.06.078.122.116.183.018.033.037.064.055.1.031.055.061.109.089.163.019.036.036.071.053.108s.038.08.057.12a4.039,4.039,0,0,1,.262.792c.018,0,.037,0,.057-.006l.105-.007c.113-.007.227-.013.341-.018l.126,0c.107,0,.215-.007.322-.007h.147c.1,0,.2,0,.3,0l.166.006c.093,0,.187.008.281.014l.185.014c.087.007.174.013.259.022l.2.023c.079.009.157.018.235.03l.224.035c.07.011.14.021.21.034s.164.032.246.049l.179.037c.1.022.192.048.288.071.042.012.085.021.127.032.137.038.272.079.4.123l.024.008c.094.032.186.065.275.1l.1.038c.064.025.126.05.187.076.034.014.066.03.1.044.058.026.114.053.17.08.029.014.059.028.088.044.057.029.113.058.167.089l.07.039q.092.052.177.108l.042.025a3.578,3.578,0,0,1,.565.457l0,0m-13.69-2.695c-.036-.005-.072-.011-.108-.015l.028,0h.011l.069.011M88,82.455l-.108-.013.035,0h0c.023,0,.048,0,.072.009m-.829-.068c-.053,0-.107-.006-.161-.007.033,0,.066,0,.1,0l.027,0,.036,0m-3.048.137c-.128.018-.253.04-.379.061.092-.015.184-.033.277-.047h0c.016,0,.033,0,.05-.008l.052-.006m18.97,6.844c.5-1.238-.338-2.509-2.523-3.231A11.854,11.854,0,0,0,96,85.672C95.622,84,94.117,82.41,91.532,81.4c-5.092-1.991-11.558-.7-13.906,2.642a4.348,4.348,0,0,0-.744,1.727c-2.7-.072-5.153.659-6.072,1.97a1.737,1.737,0,0,0-.206,1.746c1.124-1.125,3.45-1.739,5.983-1.667a4.163,4.163,0,0,1,.27-.881h0c.038-.089.08-.175.124-.263h0c.014-.028.029-.054.043-.081.035-.065.071-.129.109-.194h0l.047-.078h0c.055-.088.111-.176.173-.263s.122-.167.187-.249l.095-.12h0c.056-.068.114-.135.174-.2h0c.093-.1.19-.2.291-.3h0q.151-.148.313-.289h0c.028-.024.056-.047.084-.072h0c.072-.06.145-.119.22-.177h0c.029-.021.058-.045.088-.068h0c.1-.076.206-.153.313-.226.091-.062.186-.123.281-.182h0c.074-.047.15-.092.226-.138h0c.016-.01.033-.019.05-.028l.034-.018h0c.1-.058.2-.116.306-.171h0q.2-.105.405-.2h0q.207-.1.42-.189h0c.143-.061.287-.118.434-.175h0a13.247,13.247,0,0,1,1.561-.475h0c.058-.014.117-.025.175-.038q.248-.056.5-.105l.109-.019c.164-.029.329-.058.5-.081s.317-.045.477-.063h0l.131-.013c.126-.013.252-.024.378-.035-.111.009-.22.019-.33.031.119-.012.238-.024.358-.033l-.028,0,.146-.009-.062,0c.117-.009.235-.019.353-.025.032,0,.066,0,.1,0l.089,0c-.029,0-.057,0-.086,0l.166,0h-.062c.089,0,.179-.008.269-.01.163,0,.326,0,.491,0h0c.16,0,.32.009.481.016l.223.011c.151.009.3.02.453.032l.053.005-.026,0h.021q.044.006.087.009l-.082-.007c.124.012.249.024.374.039l.2.024.151.02.169.024.225.036c.211.034.421.074.63.118-.019,0-.037-.009-.056-.012.021,0,.04.009.06.013.08.016.163.032.243.051h0l.183.044h0c-.142-.035-.285-.067-.428-.1h0c.149.031.3.065.446.1s.314.08.47.123l.07.021c.155.044.308.09.462.14h0l.18.057c.072.024.143.052.215.076l.03.011c-.1-.035-.2-.069-.293-.1.182.061.364.126.544.195.024.008.047.017.071.027h0c.131.052.257.105.383.16h0c.081.034.159.07.237.105l.121.056c.062.029.123.06.183.089l.068.034-.032-.017c.017.009.034.018.051.025h0l.025.013-.045-.022.068.033c.036.019.072.037.108.057.06.03.119.064.178.1-.042-.023-.084-.048-.127-.071a.244.244,0,0,0,.028.014h0c.051.029.1.056.148.083l-.049-.026.093.051.057.033.148.086-.067-.04.043.025h0c.027.015.053.032.08.049l-.057-.035.147.09c-.01-.006-.02-.013-.03-.018l.02.011h0l.029.018-.02-.012.15.1-.029-.02c.02.014.041.026.061.039h0l.03.019-.062-.039c.055.036.109.072.162.109-.028-.02-.056-.04-.085-.059l.11.074h0l.028.019-.053-.034c.043.028.086.058.128.087l-.007,0a.24.24,0,0,0,.026.018l-.019-.013c.06.043.118.087.176.13-.043-.032-.085-.065-.13-.1l.028.019h0l.113.086-.011-.008.026.019.089.068c.081.063.16.127.238.192-.071-.06-.144-.12-.219-.177l.074.056h0c.047.04.094.077.14.117h0c.049.042.1.085.147.128h0c.045.04.089.079.132.121h0c.045.042.09.086.134.129h0c.042.042.084.084.124.126h0c.042.044.081.087.121.131h0c.039.043.079.086.115.129h0c.018.022.034.043.051.063h0a4.786,4.786,0,0,1,1.01,1.968,12.3,12.3,0,0,1,4.748.48,5.238,5.238,0,0,1,2.081,1.17m.969,4.4c.732-1.388-.122-2.857-2.585-3.671a12.882,12.882,0,0,0-5.249-.461c-.028.1-.061.208-.1.311v0c-.036.1-.077.206-.123.308h0c-.048.109-.1.217-.159.325h0c-.036.066-.074.132-.113.2h0l-.006.01c-.047.076-.094.153-.146.227l-.034.05c-.1.141-.2.281-.319.418l0,0c-.081.1-.165.19-.254.284h0c-.09.094-.183.186-.281.277q-.191.175-.4.342l-.022.017c-.027.021-.057.041-.084.062-.054.042-.109.081-.164.121l.049-.034a14.089,14.089,0,0,1,7.822.013,5.652,5.652,0,0,1,2.166,1.2m-7.656,3.042Zm.083-.011h0c.1-.015.209-.027.314-.039-.105.012-.21.024-.314.039m-.083.011,0,0c-.115.017-.229.034-.342.053.113-.019.227-.036.342-.053h0m5.929-1.921a14.548,14.548,0,0,0-8.4.09s0,0,0,0a5.7,5.7,0,0,1-3.443.1,3.485,3.485,0,0,1-.825-.369h0c-.04.029-.078.06-.115.091s-.078.066-.114.1-.091.093-.131.14l-.018.02a1.54,1.54,0,0,0-.1.136l-.018.025c-.029.046-.055.091-.079.137l-.006.014,0,.007a1.425,1.425,0,0,0-.06.144,1.106,1.106,0,0,0-.044.183,1.163,1.163,0,0,0-.011.12v.03a1.009,1.009,0,0,0,.026.238l.005.021,0,.007a.932.932,0,0,0,.036.117,1.244,1.244,0,0,0,.08.17h0a1.526,1.526,0,0,0,.109.166c.028.035.058.07.09.106l.024.025a2.163,2.163,0,0,0,.221.2l.03.023h0c.042.032.085.063.131.093a1.946,1.946,0,0,0,.174.1l.007.005.019.011c.059.031.12.061.184.092l.008,0,.008,0,.02.009c.064.029.131.057.2.083l.028.01,0,0c.073.027.149.053.227.077a5.154,5.154,0,0,0,.881.182c.1.011.2.02.306.026.025,0,.05,0,.076.005.1,0,.2.01.308.01s.175,0,.263-.006h.028l.054,0c.062,0,.123-.007.184-.013l.092-.007.182-.021.08-.012c.086-.01.17-.025.255-.041a5.238,5.238,0,0,0,.841-.228.048.048,0,0,0,0,.012c.193-.06.39-.116.589-.169h0c.017,0,.033-.009.05-.012h0q.306-.081.621-.148h0c.053-.012.106-.022.159-.033h0c.166-.034.332-.064.5-.094l.047-.008h0c.028-.006.056-.011.083-.014l.212-.031h0c.028,0,.055-.007.083-.011h0c.111-.017.222-.035.334-.048h0c.175-.02.351-.038.528-.053h0c.106-.009.212-.016.319-.024h0l.212-.014h0l.2-.01h0c.1,0,.208-.007.312-.009h0c.078,0,.154,0,.231,0h0c.108,0,.215,0,.323,0h0c.07,0,.141,0,.212,0h0q.164,0,.327.012h0l.2.01c.118.007.235.017.352.028h0c.056,0,.112.007.168.013h0c.172.017.344.036.514.059q.541.074,1.06.19c.344.077.679.17,1,.276.126.041.246.084.363.129h0l.079.03h0c.09.036.18.072.265.109h0c.036.015.07.032.105.047h0c.086.038.169.078.25.118h0c.02.011.041.02.061.03h0c.077.039.152.081.225.121h0l.061.035h0c.091.051.178.105.261.16h0c.058.038.113.077.168.116h0l.009.006h0c.062.045.122.09.18.136h0l.031.025h0c.051.041.1.083.146.125h0l.017.016h0c.05.045.1.09.143.138h0c.594-1.41-.344-2.863-2.832-3.686"/><path class="a" d="M86.927,10.609A5.349,5.349,0,0,1,83.215,9.3a4.324,4.324,0,0,1-1.46-3.377,4.233,4.233,0,0,1,1.46-3.347,6.073,6.073,0,0,1,7.454,0A4.277,4.277,0,0,1,92.1,5.924,4.369,4.369,0,0,1,90.669,9.3,5.325,5.325,0,0,1,86.927,10.609Z"/></svg>