<svg width="250" height="100" viewBox="0 0 250 100" fill="none" xmlns="http://www.w3.org/2000/svg">
<rect width="250" height="100" fill="white"/>
<g clip-path="url(#clip0)">
<path d="M0 37.1326V63.2345H4.05417V52.4589H9.29V48.7309H4.05417V40.8623H10.7275V37.1326H0Z" fill="#11354E"/>
<path d="M12.6825 63.2345H16.7392V37.1326H12.6825V63.2345Z" fill="#11354E"/>
<path d="M25.2542 48.6914H30.9325V56.9693C30.9325 61.1478 28.8675 63.5377 24.8858 63.5377C20.9042 63.5377 18.84 61.1512 18.84 56.9693V43.3971C18.84 39.2211 20.9042 36.8345 24.8858 36.8345C28.8675 36.8345 30.9325 39.2211 30.9325 43.3971V45.9335H27.0992V43.1368C27.0992 41.2724 26.2875 40.5634 24.9975 40.5634C23.7075 40.5634 22.895 41.2724 22.895 43.1368V57.232C22.895 59.0956 23.7075 59.7667 24.9975 59.7667C26.2875 59.7667 27.0992 59.0931 27.0992 57.232V52.4202H25.2542V48.6914Z" fill="#11354E"/>
<path d="M37.1458 63.2345H33.0892V37.1326H37.1458V48.3208H41.7542V37.1326H45.8825V63.2345H41.7542V52.0488H37.1458V63.2345Z" fill="#11354E"/>
<path d="M48.0408 37.1326H60.5758V40.8623H56.3367V63.2345H52.2808V40.8623H48.0408V37.1326Z" fill="#11354E"/>
<path d="M132.168 48.7032H137.403V52.4295H132.168V63.2067H128.113V37.1048H138.842V40.8345H132.168V48.7032Z" fill="#11354E"/>
<path d="M145 37.1048V57.2421C145 59.1057 145.812 59.7768 147.102 59.7768C148.392 59.7768 149.202 59.1032 149.202 57.2421V37.1048H153.036V56.9785C153.036 61.1545 150.972 63.5469 146.991 63.5469C143.009 63.5469 140.943 61.1579 140.943 56.9785V37.1048H145Z" fill="#11354E"/>
<path d="M155.176 37.1048H167.712V40.8345H163.471V63.2067H159.417V40.8345H155.176V37.1048Z" fill="#11354E"/>
<path d="M173.906 37.1048V57.2421C173.906 59.1057 174.717 59.7768 176.007 59.7768C177.297 59.7768 178.108 59.1032 178.108 57.2421V37.1048H181.942V56.9785C181.942 61.1545 179.877 63.5469 175.896 63.5469C171.915 63.5469 169.849 61.1579 169.849 56.9785V37.1048H173.906Z" fill="#11354E"/>
<path d="M188.098 40.8345V48.8505H189.682C191.193 48.8505 192.114 48.1768 192.114 46.0926V43.5158C192.114 41.6505 191.488 40.8312 190.049 40.8312L188.098 40.8345ZM192.523 63.2067C192.187 62.1737 192.062 61.0825 192.155 59.9992V55.8947C192.155 53.4712 191.345 52.5768 189.5 52.5768H188.098V63.2042H184.045V37.099H190.167C194.369 37.099 196.176 39.0745 196.176 43.1032V45.1528C196.176 47.8383 195.328 49.5916 193.523 50.4472C195.549 51.3053 196.213 53.2808 196.213 56.0051V60.0312C196.139 61.1076 196.289 62.1877 196.654 63.2017L192.523 63.2067Z" fill="#11354E"/>
<path d="M202.339 48.1044H207.907V51.8341H202.339V59.4779H209.343V63.2067H198.284V37.1048H209.343V40.8345H202.339V48.1044Z" fill="#11354E"/>
<path d="M66.19 37.1208H72.4475V39.1478H68.5492V48.6594H72.2675V50.6838H68.5492V63.2345H66.19V37.1208Z" fill="#11354E"/>
<path d="M76.9 58.9667C76.9 60.4118 77.1867 61.424 78.6883 61.424C80.19 61.424 80.4758 60.4135 80.4758 58.9667V41.3886C80.4758 39.9436 80.19 38.9297 78.6883 38.9297C77.1867 38.9297 76.9 39.9402 76.9 41.3886V58.9667ZM74.5408 41.3171C74.5408 38.7486 75.5058 36.9044 78.6883 36.9044C81.8708 36.9044 82.8333 38.7486 82.8333 41.3171V59.0375C82.8333 61.6067 81.8675 63.4509 78.685 63.4509C75.5025 63.4509 74.5375 61.6067 74.5375 59.0375L74.5408 41.3171Z" fill="#11354E"/>
<path d="M88.8617 48.6594C89.97 48.6594 90.6117 48.3343 90.6117 46.7773V40.9187C90.6117 39.403 89.825 39.1503 88.6117 39.1503H87.2892V48.6661L88.8617 48.6594ZM90.7217 52.2745C90.7217 51.0114 89.9717 50.6838 88.8617 50.6838H87.2892V63.2312H84.9275V37.1208H89.3275C91.5775 37.1208 92.9725 37.52 92.9725 40.123V46.7419C92.9725 48.768 92.2225 49.4543 90.3983 49.563V49.6345C92.0792 49.744 93.0808 50.2501 93.0808 52.0581V63.2345H90.7217V52.2745Z" fill="#11354E"/>
<path d="M98.6833 39.2051H96.0458V37.1857H103.672V39.2051H101.034V63.2109H98.6833V39.2051Z" fill="#11354E"/>
<path d="M111.693 37.1857H114.045V63.2109H111.693V50.7023H108.165V63.2109H105.812V37.1857H108.165V48.6846H111.693V37.1857Z" fill="#11354E"/>
<path d="M116.144 37.1857H122.382V39.2051H118.497V48.6846H122.203V50.7023H118.497V61.1933H122.382V63.2109H116.144V37.1857Z" fill="#11354E"/>
<path d="M242.823 48.5752C242.61 51.3314 240.553 54.7301 234.538 58.9962C228.524 54.7301 226.469 51.333 226.256 48.5752V47.6168C226.484 44.7368 228.36 43.2337 229.983 43.0745C230.233 43.0486 230.483 43.0356 230.733 43.0358C232.609 43.0358 233.509 43.8543 234.538 45.0964C235.569 43.8543 236.468 43.0358 238.341 43.0358C238.591 43.0356 238.842 43.0486 239.091 43.0745C240.714 43.2337 242.591 44.7368 242.821 47.6168L242.823 48.5752ZM234.49 34.3124C231.42 34.3096 228.417 35.2269 225.863 36.9483C223.308 38.6697 221.316 41.1179 220.139 43.9834C218.961 46.8488 218.651 50.0028 219.247 53.0464C219.843 56.0901 221.319 58.8867 223.489 61.0827C225.658 63.2786 228.422 64.7752 231.433 65.3833C234.444 65.9914 237.566 65.6836 240.404 64.4989C243.241 63.3142 245.668 61.3057 247.376 58.7274C249.084 56.1492 249.997 53.117 250 50.0143V50C250.002 45.8413 248.369 41.8523 245.46 38.9103C242.551 35.9683 238.605 34.3144 234.49 34.3124V34.3124Z" fill="#EC3332"/>
<path d="M239.093 43.0745C238.844 43.0483 238.594 43.0351 238.343 43.0349C236.47 43.0349 235.572 43.8535 234.541 45.0973C233.512 43.8535 232.611 43.0349 230.736 43.0349C230.485 43.0351 230.235 43.0483 229.986 43.0745C228.362 43.2337 226.486 44.7368 226.258 47.6168V48.5752C226.472 51.3314 228.527 54.7301 234.541 58.9962C240.555 54.7301 242.612 51.333 242.826 48.5752V47.6168C242.596 44.7368 240.719 43.2337 239.096 43.0745" fill="white"/>
</g>
<defs>
<clipPath id="clip0">
<rect width="250" height="32" fill="white" transform="translate(0 34)"/>
</clipPath>
</defs>
</svg>
