<svg xmlns="http://www.w3.org/2000/svg" width="60" height="60" viewBox="0 0 60 60"><defs><style>.a{fill:#fff;}</style></defs><title>Kin Logo</title><path class="a" d="M39.846,24.743a1.825,1.825,0,0,1-1.822,1.827h-1.7a3.315,3.315,0,0,0-3.311,3.32h-.007a3.508,3.508,0,0,0,3.529,3.32h1.5a1.811,1.811,0,0,1,1.808,1.812v5H34.813a1.81,1.81,0,0,1-1.808-1.813V36.536a3.421,3.421,0,0,0-3.372-3.381v-.007A3.411,3.411,0,0,0,26.382,36.7v1.522a1.8,1.8,0,0,1-1.792,1.8H20.12V19.8h4.506a1.758,1.758,0,0,1,1.756,1.761V23.25a3.476,3.476,0,0,0,3.4,3.412,3.319,3.319,0,0,0,3.219-3.412V21.624A1.824,1.824,0,0,1,34.827,19.8h5.019Zm19.41.315c-.979-3.186-2.559-5.932-7.668-11L45.774,8.288c-5.11-5.07-7.868-6.627-11.062-7.582a16.391,16.391,0,0,0-9.641.038c-3.186.979-5.933,2.559-11,7.668L8.288,14.239C3.218,19.348,1.661,22.107.706,25.3a16.394,16.394,0,0,0,.038,9.642c.979,3.186,2.559,5.932,7.668,11l5.814,5.769c5.11,5.069,7.868,6.627,11.062,7.582a16.391,16.391,0,0,0,9.641-.038c3.186-.979,5.933-2.559,11-7.668l5.781-5.827c5.069-5.109,6.627-7.868,7.582-11.061a16.394,16.394,0,0,0-.038-9.642Z"/></svg>
