<svg width="60" height="60" viewBox="0 0 60 60" fill="none" xmlns="http://www.w3.org/2000/svg">
<g clip-path="url(#clip0)">
<path d="M39.846 24.743C39.8465 25.2268 39.6549 25.6911 39.3132 26.0337C38.9716 26.3763 38.5078 26.5692 38.024 26.57H36.324C35.8886 26.5705 35.4575 26.6568 35.0555 26.824C34.6534 26.9911 34.2882 27.2358 33.9808 27.5441C33.6733 27.8524 33.4296 28.2183 33.2635 28.6208C33.0975 29.0233 33.0123 29.4546 33.013 29.89H33.006C33.0543 30.7911 33.448 31.6388 34.1052 32.2571C34.7625 32.8754 35.6327 33.2167 36.535 33.21H38.035C38.515 33.2108 38.975 33.4021 39.314 33.7418C39.653 34.0816 39.8433 34.542 39.843 35.022V40.022H34.813C34.5752 40.0217 34.3398 39.9746 34.1203 39.8834C33.9007 39.7921 33.7013 39.6585 33.5334 39.4901C33.3655 39.3217 33.2324 39.1219 33.1417 38.9021C33.0511 38.6823 33.0046 38.4468 33.005 38.209V36.536C32.9947 35.6441 32.6364 34.7914 32.0065 34.1599C31.3766 33.5283 30.5249 33.1677 29.633 33.155V33.148C28.7314 33.1895 27.8831 33.5867 27.2737 34.2524C26.6644 34.9182 26.3437 35.7983 26.382 36.7V38.222C26.382 38.698 26.1935 39.1546 25.8576 39.492C25.5218 39.8293 25.066 40.0199 24.59 40.022H20.12V19.8H24.626C24.8569 19.8003 25.0856 19.846 25.2988 19.9347C25.5121 20.0233 25.7058 20.1531 25.8689 20.3167C26.0319 20.4802 26.1612 20.6743 26.2492 20.8878C26.3373 21.1013 26.3824 21.3301 26.382 21.561V23.25C26.3983 24.1478 26.7614 25.0044 27.3952 25.6404C28.029 26.2764 28.8843 26.6425 29.782 26.662C30.6611 26.6359 31.494 26.2618 32.0975 25.6221C32.7011 24.9823 33.026 24.1292 33.001 23.25V21.624C33.001 21.3843 33.0482 21.147 33.14 20.9255C33.2318 20.7041 33.3664 20.5029 33.5359 20.3335C33.7055 20.1641 33.9068 20.0298 34.1284 19.9383C34.3499 19.8467 34.5873 19.7997 34.827 19.8H39.846V24.743ZM59.256 25.058C58.277 21.872 56.697 19.126 51.588 14.058L45.774 8.288C40.664 3.218 37.906 1.661 34.712 0.706002C31.5672 -0.248117 28.2082 -0.234878 25.071 0.744002C21.885 1.723 19.138 3.303 14.071 8.412L8.288 14.239C3.218 19.348 1.661 22.107 0.706 25.3C-0.24814 28.4451 -0.2349 31.8045 0.744 34.942C1.723 38.128 3.303 40.874 8.412 45.942L14.226 51.711C19.336 56.78 22.094 58.338 25.288 59.293C28.4328 60.2471 31.7918 60.2339 34.929 59.255C38.115 58.276 40.862 56.696 45.929 51.587L51.71 45.76C56.779 40.651 58.337 37.892 59.292 34.699C60.2461 31.5539 60.2329 28.1945 59.254 25.057L59.256 25.058Z" fill="black"/>
</g>
</svg>
