<svg xmlns="http://www.w3.org/2000/svg" width="28" height="28" viewBox="0 0 28 28"><defs><style>.a{fill:#40277c;}</style></defs><title>Link Icon</title><path class="a" d="M16.686,20.844l-5.181,5.18a6.732,6.732,0,0,1-9.49.038h0v-.038h0a6.733,6.733,0,0,1,.037-9.491L7.8,10.786a6.733,6.733,0,0,1,9.491-.038h0a7.034,7.034,0,0,1,.831,1.021l-1.55,1.55a1.331,1.331,0,0,1-1.626.227,1.68,1.68,0,0,1-.227-.264,3.1,3.1,0,0,0-4.386.037L4.586,19.105a3.1,3.1,0,0,0,0,4.386,3.139,3.139,0,0,0,4.386,0l3.252-3.252A8.576,8.576,0,0,0,16.686,20.844ZM26.063,1.938h0a6.733,6.733,0,0,0-9.491.038l-5.18,5.18a8.361,8.361,0,0,1,4.5.643l3.251-3.252a3.1,3.1,0,0,1,4.387,0,3.139,3.139,0,0,1,0,4.386l-5.748,5.71a3.139,3.139,0,0,1-4.386.038,1.684,1.684,0,0,1-.227-.265,1.317,1.317,0,0,0-1.626.227l-1.55,1.55a5.428,5.428,0,0,0,.832,1.021h0a6.733,6.733,0,0,0,9.491-.038l5.747-5.747a6.664,6.664,0,0,0,0-9.491h0c.038.038.038,0,0,0Z"/></svg>
