<svg xmlns="http://www.w3.org/2000/svg" width="50" height="50" viewBox="0 0 50 50"><defs><style>.a{fill:#fff;}</style></defs><title>Twitter logo</title><path class="a" d="M41.39,15.467a12.325,12.325,0,0,1-3.627.99,6.334,6.334,0,0,0,2.773-3.492A12.516,12.516,0,0,1,36.531,14.5a6.312,6.312,0,0,0-10.754,5.75,17.915,17.915,0,0,1-13.014-6.594,6.333,6.333,0,0,0,1.949,8.427,6.344,6.344,0,0,1-2.861-.785,6.3,6.3,0,0,0,5.063,6.264,6.246,6.246,0,0,1-2.852.107,6.31,6.31,0,0,0,5.9,4.383,12.751,12.751,0,0,1-9.348,2.618A17.835,17.835,0,0,0,20.288,37.5c11.715,0,18.338-9.9,17.94-18.774A12.329,12.329,0,0,0,41.39,15.467Z"/></svg>
