<svg xmlns="http://www.w3.org/2000/svg" width="49" height="49" viewBox="0 0 49 49"><title>Call Icon</title><path d="M24.5,0A24.5,24.5,0,1,0,49,24.5,24.5,24.5,0,0,0,24.5,0Zm1.039,14.965a.708.708,0,0,1,.794-.608,9.223,9.223,0,0,1,8.055,8.056.7.7,0,0,1-.6.782l-.013,0h-.1a.7.7,0,0,1-.7-.618,7.82,7.82,0,0,0-6.831-6.821A.708.708,0,0,1,25.539,14.965Zm-.245,4.782a.715.715,0,0,1,.794-.608,4.146,4.146,0,0,1,2.41,1.206,4.075,4.075,0,0,1,1.1,2.313.7.7,0,0,1-.627.774c-.03,0-.049.01-.079.01a.719.719,0,0,1-.705-.637,2.641,2.641,0,0,0-.706-1.48,2.68,2.68,0,0,0-1.578-.784A.713.713,0,0,1,25.294,19.747Zm10.28,15-3.42,3.42a3.5,3.5,0,0,1-3.959.706,36.408,36.408,0,0,1-11.123-7.968A36.687,36.687,0,0,1,10.4,21.09a3.513,3.513,0,0,1,.7-3.969l3.42-3.421a1.444,1.444,0,0,1,2.042-.006l.006.006,3.067,3.058a1.445,1.445,0,0,1,.01,2.058l-2.293,2.293A23.223,23.223,0,0,0,21.3,26.852a23.527,23.527,0,0,0,6.831,5.037L30.419,29.6a1.444,1.444,0,0,1,2.042-.006l.006.006L35.574,32.7a1.444,1.444,0,0,1,.006,2.042Zm2.734-12.113c-.019-.01-.049,0-.078,0a.7.7,0,0,1-.7-.617,12.614,12.614,0,0,0-3.381-7.1,12.774,12.774,0,0,0-7.438-3.714.705.705,0,1,1,.166-1.4,14.226,14.226,0,0,1,8.281,4.135,14,14,0,0,1,3.764,7.9A.714.714,0,0,1,38.308,22.638Z"/></svg>
